<svg aria-hidden="true" style="position:absolute;width:0;height:0" xmlns="http://www.w3.org/2000/svg" overflow="hidden"><defs><symbol id="arrow-left" viewBox="0 0 20 32"><path d="M16.308 4.158L6.221 14.477l10.087 10.321z"/></symbol><symbol id="arrow-right" viewBox="0 0 20 32"><path d="M3.692 4.158l10.087 10.319L3.692 24.798z"/></symbol><symbol id="facebook-icon" viewBox="0 0 19 32"><path d="M16.768 1.435l-3.597-.008c-4.043 0-6.653 2.739-6.653 6.973v3.216H2.899a.573.573 0 00-.565.579v4.659c0 .32.253.576.565.576h3.619v11.755c0 .32.253.579.565.579h4.72a.572.572 0 00.565-.579V17.43h4.229a.57.57 0 00.565-.576l.003-4.659a.598.598 0 00-.165-.411.57.57 0 00-.403-.168h-4.229V8.891c0-1.312.307-1.973 1.976-1.973l2.424-.003a.571.571 0 00.565-.576V2.014a.572.572 0 00-.565-.579z"/></symbol><symbol id="sidebar-icon" viewBox="0 0 48 32"><path d="M.4 29.203v-4h46v4H.4zm18-16h28v4h-28v-4zm-8-12h36v4h-36v-4z"/></symbol><symbol id="twitter-icon" viewBox="0 0 35 32"><path d="M32.717 3.03a12.685 12.685 0 01-4.17 1.718c-1.2-1.379-2.902-2.234-4.79-2.234-3.629 0-6.566 3.165-6.566 7.069 0 .55.058 1.094.17 1.61-5.456-.291-10.294-3.11-13.53-7.389a7.453 7.453 0 00-.89 3.555c0 2.454 1.162 4.618 2.922 5.882a6.155 6.155 0 01-2.976-.88v.083c0 3.427 2.266 6.282 5.267 6.934-.55.16-1.13.25-1.731.25-.422 0-.832-.048-1.235-.128.835 2.806 3.261 4.848 6.131 4.909-2.246 1.898-5.078 3.027-8.154 3.027-.528 0-1.05-.035-1.565-.096 2.906 2.006 6.355 3.174 10.064 3.174 12.074 0 18.675-10.771 18.675-20.118l-.019-.915a13.777 13.777 0 003.28-3.654c-1.178.56-2.442.944-3.77 1.114 1.357-.874 2.394-2.266 2.886-3.91z"/></symbol></defs></svg>