<svg xmlns="http://www.w3.org/2000/svg" viewBox="0 0 11 10"><path d="M10.224.947a3.97 3.97 0 01-1.303.537A1.979 1.979 0 007.424.786c-1.134 0-2.052.989-2.052 2.209 0 .172.018.342.053.503-1.705-.091-3.217-.972-4.228-2.309A2.328 2.328 0 00.919 2.3c0 .767.363 1.443.913 1.838a1.923 1.923 0 01-.93-.275v.026c0 1.071.708 1.963 1.646 2.167a1.933 1.933 0 01-.927.038c.261.877 1.019 1.515 1.916 1.534A3.932 3.932 0 01.5 8.544a5.508 5.508 0 003.145.992c3.773 0 5.836-3.366 5.836-6.287l-.006-.286A4.3 4.3 0 0010.5 1.821a3.884 3.884 0 01-1.178.348 2.2 2.2 0 00.902-1.222z"/></svg>