<svg aria-hidden="true" style="position: absolute; width: 0; height: 0; overflow: hidden;" version="1.1" xmlns="http://www.w3.org/2000/svg" xmlns:xlink="http://www.w3.org/1999/xlink">
<defs>
<symbol id="arrow-left" viewBox="0 0 20 32">
<path d="M16.308 4.158l-10.087 10.319 10.087 10.321z"></path>
</symbol>
<symbol id="arrow-right" viewBox="0 0 20 32">
<path d="M3.692 4.158l10.087 10.319-10.087 10.321z"></path>
</symbol>
<symbol id="facebook-icon" viewBox="0 0 19 32">
<path d="M16.768 1.435l-3.597-0.008c-4.043 0-6.653 2.739-6.653 6.973v3.216h-3.619c-0.312 0-0.565 0.261-0.565 0.579v4.659c0 0.32 0.253 0.576 0.565 0.576h3.619v11.755c0 0.32 0.253 0.579 0.565 0.579h4.72c0.312 0 0.565-0.259 0.565-0.579v-11.755h4.229c0.312 0 0.565-0.256 0.565-0.576l0.003-4.659c0-0.155-0.061-0.301-0.165-0.411-0.107-0.107-0.251-0.168-0.403-0.168h-4.229v-2.725c0-1.312 0.307-1.973 1.976-1.973l2.424-0.003c0.312 0 0.565-0.259 0.565-0.576v-4.325c0-0.32-0.253-0.579-0.565-0.579z"></path>
</symbol>
<symbol id="sidebar-icon" viewBox="0 0 48 32">
<path d="M0.4 29.203v-4h46v4h-46zM18.4 13.203h28v4h-28v-4zM10.4 1.203h36v4h-36v-4z"></path>
</symbol>
<symbol id="twitter-icon" viewBox="0 0 35 32">
<path d="M32.717 3.030c-1.27 0.81-2.675 1.398-4.17 1.718-1.2-1.379-2.902-2.234-4.79-2.234-3.629 0-6.566 3.165-6.566 7.069 0 0.55 0.058 1.094 0.17 1.61-5.456-0.291-10.294-3.11-13.53-7.389-0.566 1.046-0.89 2.259-0.89 3.555 0 2.454 1.162 4.618 2.922 5.882-1.078-0.032-2.090-0.352-2.976-0.88v0.083c0 3.427 2.266 6.282 5.267 6.934-0.55 0.16-1.13 0.25-1.731 0.25-0.422 0-0.832-0.048-1.235-0.128 0.835 2.806 3.261 4.848 6.131 4.909-2.246 1.898-5.078 3.027-8.154 3.027-0.528 0-1.050-0.035-1.565-0.096 2.906 2.006 6.355 3.174 10.064 3.174 12.074 0 18.675-10.771 18.675-20.118l-0.019-0.915c1.286-0.992 2.4-2.234 3.28-3.654-1.178 0.56-2.442 0.944-3.77 1.114 1.357-0.874 2.394-2.266 2.886-3.91z"></path>
</symbol>
</defs>
</svg>
